<svg width="50" height="50" viewBox="0 0 50 50" fill="none" xmlns="http://www.w3.org/2000/svg">
<path d="M24.6 2.05C18.6826 1.98987 12.9834 4.28164 8.755 8.42165C4.52658 12.5617 2.11491 18.2111 2.05 24.1285C2.0728 28.8049 3.57714 33.3537 6.34693 37.1217C9.11673 40.8897 13.0095 43.6828 17.466 45.1C18.5935 45.305 19.0035 44.6285 19.0035 44.034C19.0035 43.4395 19.0035 42.1275 19.0035 40.2825C12.7305 41.615 11.398 37.3305 11.398 37.3305C10.9804 35.9855 10.0926 34.8357 8.897 34.0915C6.847 32.7385 9.061 32.759 9.061 32.759C9.76959 32.8537 10.4475 33.1077 11.044 33.5017C11.6404 33.8958 12.1399 34.4198 12.505 35.0345C13.1412 36.1376 14.185 36.9469 15.4119 37.2881C16.6388 37.6294 17.9506 37.4753 19.065 36.859C19.1796 35.7364 19.688 34.6906 20.5 33.907C15.498 33.3535 10.25 31.4675 10.25 23.001C10.2053 20.7925 11.0213 18.6532 12.5255 17.0355C11.8404 15.1394 11.9213 13.0509 12.751 11.2135C12.751 11.2135 14.6575 10.619 18.901 13.4685C22.5949 12.4842 26.4821 12.4842 30.176 13.4685C34.481 10.619 36.326 11.2135 36.326 11.2135C37.1557 13.0509 37.2366 15.1394 36.5515 17.0355C38.0906 18.6235 38.9509 20.7485 38.95 22.96C38.95 31.447 33.661 33.3125 28.7 33.866C29.2432 34.3934 29.6628 35.0346 29.9287 35.7435C30.1945 36.4524 30.3 37.2115 30.2375 37.966V44.0135C30.2375 44.0135 30.6475 45.305 31.775 45.0795C36.2189 43.6535 40.0985 40.8597 42.8598 37.0971C45.621 33.3345 47.1225 28.7955 47.15 24.1285C47.0851 18.2111 44.6734 12.5617 40.445 8.42165C36.2166 4.28164 30.5174 1.98987 24.6 2.05" fill="#231F20"/>
</svg>
