<svg width="50" height="50" viewBox="0 0 50 50" fill="none" xmlns="http://www.w3.org/2000/svg">
<path d="M41 45.1H37.5765C36.4891 45.1 35.4463 44.6681 34.6774 43.8992C33.9085 43.1303 33.4765 42.0874 33.4765 41V29.9915C33.4948 29.5598 33.3643 29.1348 33.1068 28.7878C32.8494 28.4408 32.4805 28.1927 32.062 28.085C31.8185 28.0479 31.5699 28.0635 31.333 28.1307C31.096 28.1979 30.8763 28.3152 30.6885 28.4745C30.4952 28.6385 30.3401 28.8427 30.2339 29.0729C30.1277 29.303 30.0729 29.5535 30.0735 29.807V41C30.0735 42.0874 29.6415 43.1303 28.8726 43.8992C28.1037 44.6681 27.0609 45.1 25.9735 45.1H22.55C21.4626 45.1 20.4198 44.6681 19.6509 43.8992C18.882 43.1303 18.45 42.0874 18.45 41V29.807C18.45 28.0572 18.7947 26.3244 19.4643 24.7078C20.1339 23.0911 21.1155 21.6222 22.3528 20.3848C23.5901 19.1475 25.0591 18.166 26.6757 17.4963C28.2924 16.8267 30.0251 16.482 31.775 16.482C33.5249 16.482 35.2576 16.8267 36.8743 17.4963C38.4909 18.166 39.9599 19.1475 41.1972 20.3848C42.4345 21.6222 43.416 23.0911 44.0857 24.7078C44.7553 26.3244 45.1 28.0572 45.1 29.807V41C45.1 42.0874 44.668 43.1303 43.8991 43.8992C43.1302 44.6681 42.0874 45.1 41 45.1ZM31.775 23.9645C32.0958 23.9443 32.4176 23.9443 32.7385 23.9645C34.1148 24.2293 35.354 24.9701 36.2386 26.0572C37.1233 27.1443 37.5969 28.5081 37.5765 29.9095V41H41V29.807C41 27.3604 40.0281 25.014 38.2981 23.284C36.568 21.5539 34.2216 20.582 31.775 20.582C29.3284 20.582 26.982 21.5539 25.2519 23.284C23.5219 25.014 22.55 27.3604 22.55 29.807V41H25.9735V29.807C25.9735 28.2646 26.5834 26.7847 27.6702 25.6902C28.757 24.5957 30.2326 23.9753 31.775 23.9645V23.9645Z" fill="#231F20"/>
<path d="M12.3 45.1H8.20001C7.11262 45.1 6.06977 44.668 5.30087 43.8991C4.53197 43.1302 4.10001 42.0874 4.10001 41V20.5C4.10001 19.4126 4.53197 18.3698 5.30087 17.6009C6.06977 16.832 7.11262 16.4 8.20001 16.4H12.3C13.3874 16.4 14.4302 16.832 15.1991 17.6009C15.968 18.3698 16.4 19.4126 16.4 20.5V41C16.4 42.0874 15.968 43.1302 15.1991 43.8991C14.4302 44.668 13.3874 45.1 12.3 45.1ZM8.20001 20.5V41H12.3V20.5H8.20001Z" fill="#231F20"/>
<path d="M10.25 14.35C9.03365 14.35 7.84461 13.9893 6.83325 13.3135C5.82189 12.6378 5.03363 11.6773 4.56815 10.5535C4.10267 9.42974 3.98088 8.19318 4.21818 7.0002C4.45548 5.80722 5.04121 4.71139 5.9013 3.8513C6.7614 2.99121 7.85722 2.40548 9.0502 2.16818C10.2432 1.93088 11.4797 2.05267 12.6035 2.51815C13.7273 2.98363 14.6878 3.77189 15.3635 4.78325C16.0393 5.79461 16.4 6.98365 16.4 8.20001C16.4 9.83109 15.7521 11.3954 14.5987 12.5487C13.4454 13.7021 11.8811 14.35 10.25 14.35V14.35ZM10.25 6.15001C9.84456 6.15001 9.44821 6.27024 9.11109 6.49549C8.77397 6.72075 8.51122 7.04092 8.35606 7.4155C8.2009 7.79009 8.1603 8.20228 8.2394 8.59994C8.3185 8.9976 8.51374 9.36288 8.80044 9.64957C9.08714 9.93627 9.45241 10.1315 9.85007 10.2106C10.2477 10.2897 10.6599 10.2491 11.0345 10.094C11.4091 9.9388 11.7293 9.67605 11.9545 9.33892C12.1798 9.0018 12.3 8.60546 12.3 8.20001C12.3 7.65631 12.084 7.13489 11.6996 6.75044C11.3151 6.36599 10.7937 6.15001 10.25 6.15001V6.15001Z" fill="#231F20"/>
</svg>
